<svg width="1728" height="1117" viewBox="0 0 1728 1117" fill="none" xmlns="http://www.w3.org/2000/svg">
<g clip-path="url(#clip0_0_3)">
<rect width="1728" height="1117" fill="url(#paint0_angular_0_3)"/>
<path d="M1680.43 -117.485L1707.69 -127.937C1730.56 -136.709 1756.41 -127.432 1768.48 -106.117L1786.51 -74.2898C1789.05 -69.8122 1790.87 -64.9663 1791.91 -59.927L1803.45 -4.18992C1805.51 5.77377 1804.46 16.1311 1800.42 25.472L1670.74 325.718C1647.27 380.067 1565.48 354.835 1576.7 296.707L1649.56 -80.6517C1652.8 -97.4377 1664.47 -111.363 1680.43 -117.485Z" stroke="#302900"/>
<path d="M1536.16 914.569L1560 897.735C1580.01 883.606 1607.35 886.239 1624.29 903.929L1649.6 930.343C1653.16 934.059 1656.12 938.308 1658.37 942.936L1683.26 994.122C1687.71 1003.27 1689.24 1013.57 1687.62 1023.62L1635.79 1346.54C1626.4 1404.99 1540.92 1400.65 1537.5 1341.55L1515.29 957.866C1514.3 940.798 1522.19 924.429 1536.16 914.569Z" stroke="#302900"/>
<path d="M1644.16 406.569L1668 389.735C1688.01 375.606 1715.35 378.239 1732.29 395.929L1757.6 422.343C1761.16 426.059 1764.12 430.308 1766.37 434.936L1791.26 486.122C1795.71 495.272 1797.24 505.571 1795.62 515.618L1743.79 838.537C1734.4 896.991 1648.92 892.655 1645.5 833.552L1623.29 449.866C1622.3 432.798 1630.19 416.429 1644.16 406.569Z" stroke="#302900"/>
<rect x="-17.2076" y="-9.88445" width="33" height="28" rx="14" transform="rotate(-29.3963 -17.2076 -9.88445)" stroke="#302900"/>
<rect x="43.203" y="-10.6333" width="34" height="30" rx="15" transform="rotate(-29.3963 43.203 -10.6333)" stroke="#302900"/>
<rect x="103.724" y="-9.14879" width="33" height="29" rx="14.5" transform="rotate(-29.3963 103.724 -9.14879)" stroke="#302900"/>
<rect x="164.625" y="-9.02635" width="34" height="30" rx="15" transform="rotate(-29.3963 164.625 -9.02635)" stroke="#302900"/>
<rect x="-16.7778" y="62.1837" width="34" height="30" rx="15" transform="rotate(-29.3963 -16.7778 62.1837)" stroke="#302900"/>
<rect x="43.7432" y="63.6682" width="35" height="28" rx="14" transform="rotate(-29.3963 43.7432 63.6682)" stroke="#302900"/>
<rect x="104.154" y="62.9194" width="34" height="29" rx="14.5" transform="rotate(-29.3963 104.154 62.9194)" stroke="#302900"/>
<rect x="164.184" y="63.5326" width="35" height="30" rx="15" transform="rotate(-29.3963 164.184 63.5326)" stroke="#302900"/>
<rect x="-17.2192" y="134.743" width="35" height="30" rx="15" transform="rotate(-29.3963 -17.2192 134.743)" stroke="#302900"/>
<rect x="45.0443" y="135.245" width="33" height="29" rx="14.5" transform="rotate(-29.3963 45.0443 135.245)" stroke="#302900"/>
<rect x="104.203" y="136.35" width="35" height="28" rx="14" transform="rotate(-29.3963 104.203 136.35)" stroke="#302900"/>
<rect x="165.485" y="135.11" width="33" height="30" rx="15" transform="rotate(-29.3963 165.485 135.11)" stroke="#302900"/>
<rect x="-15.9181" y="206.32" width="33" height="30" rx="15" transform="rotate(-29.3963 -15.9181 206.32)" stroke="#302900"/>
<rect x="43.7317" y="208.295" width="36" height="29" rx="14.5" transform="rotate(-29.3963 43.7317 208.295)" stroke="#302900"/>
<rect x="105.504" y="207.927" width="33" height="30" rx="15" transform="rotate(-29.3963 105.504 207.927)" stroke="#302900"/>
<rect x="166.897" y="208.921" width="34" height="29" rx="14.5" transform="rotate(-29.3963 166.897 208.921)" stroke="#302900"/>
<rect x="-14.5066" y="280.131" width="34" height="27" rx="13.5" transform="rotate(-29.3963 -14.5066 280.131)" stroke="#302900"/>
<rect x="44.5419" y="279.001" width="33" height="30" rx="15" transform="rotate(-29.3963 44.5419 279.001)" stroke="#302900"/>
<rect x="105.934" y="279.995" width="34" height="30" rx="15" transform="rotate(-29.3963 105.934 279.995)" stroke="#302900"/>
<rect x="166.455" y="281.479" width="35" height="29" rx="14.5" transform="rotate(-29.3963 166.455 281.479)" stroke="#302900"/>
<rect x="-14.948" y="352.69" width="35" height="29" rx="14.5" transform="rotate(-29.3963 -14.948 352.69)" stroke="#302900"/>
<rect x="45.9534" y="352.812" width="34" height="28" rx="14" transform="rotate(-29.3963 45.9534 352.812)" stroke="#302900"/>
<rect x="105.493" y="352.554" width="35" height="29" rx="14.5" transform="rotate(-29.3963 105.493 352.554)" stroke="#302900"/>
<rect x="167.265" y="352.186" width="33" height="30" rx="15" transform="rotate(-29.3963 167.265 352.186)" stroke="#302900"/>
</g>
<defs>
<radialGradient id="paint0_angular_0_3" cx="0" cy="0" r="1" gradientUnits="userSpaceOnUse" gradientTransform="translate(677 357.5) rotate(74.4039) scale(788.533 1219.86)">
<stop stop-color="#141207"/>
<stop offset="0.525487"/>
</radialGradient>
<clipPath id="clip0_0_3">
<rect width="1728" height="1117" fill="white"/>
</clipPath>
</defs>
</svg>
