<svg width="1512" height="982" viewBox="0 0 1512 982" fill="none" xmlns="http://www.w3.org/2000/svg">
<g clip-path="url(#clip0_3_273)">
<rect width="1512" height="982" fill="white"/>
<g clip-path="url(#clip1_3_273)">
<rect width="1512" height="970" fill="url(#paint0_angular_3_273)"/>
<rect x="-17.2076" y="-9.88445" width="33" height="28" rx="14" transform="rotate(-29.3963 -17.2076 -9.88445)" stroke="#302900"/>
<rect x="43.203" y="-10.6333" width="34" height="30" rx="15" transform="rotate(-29.3963 43.203 -10.6333)" stroke="#302900"/>
<rect x="103.724" y="-9.14879" width="33" height="29" rx="14.5" transform="rotate(-29.3963 103.724 -9.14879)" stroke="#302900"/>
<rect x="164.626" y="-9.02635" width="34" height="30" rx="15" transform="rotate(-29.3963 164.626 -9.02635)" stroke="#302900"/>
<rect x="-16.7778" y="62.1837" width="34" height="30" rx="15" transform="rotate(-29.3963 -16.7778 62.1837)" stroke="#302900"/>
<rect x="43.7433" y="63.6682" width="35" height="28" rx="14" transform="rotate(-29.3963 43.7433 63.6682)" stroke="#302900"/>
<rect x="104.154" y="62.9193" width="34" height="29" rx="14.5" transform="rotate(-29.3963 104.154 62.9193)" stroke="#302900"/>
<rect x="164.184" y="63.5326" width="35" height="30" rx="15" transform="rotate(-29.3963 164.184 63.5326)" stroke="#302900"/>
<rect x="-17.2192" y="134.743" width="35" height="30" rx="15" transform="rotate(-29.3963 -17.2192 134.743)" stroke="#302900"/>
<rect x="45.0443" y="135.245" width="33" height="29" rx="14.5" transform="rotate(-29.3963 45.0443 135.245)" stroke="#302900"/>
<rect x="104.203" y="136.35" width="35" height="28" rx="14" transform="rotate(-29.3963 104.203 136.35)" stroke="#302900"/>
<rect x="165.485" y="135.11" width="33" height="30" rx="15" transform="rotate(-29.3963 165.485 135.11)" stroke="#302900"/>
<rect x="-15.9181" y="206.32" width="33" height="30" rx="15" transform="rotate(-29.3963 -15.9181 206.32)" stroke="#302900"/>
<rect x="43.7317" y="208.295" width="36" height="29" rx="14.5" transform="rotate(-29.3963 43.7317 208.295)" stroke="#302900"/>
<rect x="105.504" y="207.927" width="33" height="30" rx="15" transform="rotate(-29.3963 105.504 207.927)" stroke="#302900"/>
<rect x="166.897" y="208.92" width="34" height="29" rx="14.5" transform="rotate(-29.3963 166.897 208.92)" stroke="#302900"/>
<rect x="-14.5066" y="280.131" width="34" height="27" rx="13.5" transform="rotate(-29.3963 -14.5066 280.131)" stroke="#302900"/>
<rect x="44.5419" y="279.001" width="33" height="30" rx="15" transform="rotate(-29.3963 44.5419 279.001)" stroke="#302900"/>
<rect x="105.934" y="279.995" width="34" height="30" rx="15" transform="rotate(-29.3963 105.934 279.995)" stroke="#302900"/>
<rect x="166.455" y="281.479" width="35" height="29" rx="14.5" transform="rotate(-29.3963 166.455 281.479)" stroke="#302900"/>
<rect x="-14.948" y="352.69" width="35" height="29" rx="14.5" transform="rotate(-29.3963 -14.948 352.69)" stroke="#302900"/>
<rect x="45.9535" y="352.812" width="34" height="28" rx="14" transform="rotate(-29.3963 45.9535 352.812)" stroke="#302900"/>
<rect x="105.493" y="352.554" width="35" height="29" rx="14.5" transform="rotate(-29.3963 105.493 352.554)" stroke="#302900"/>
<rect x="167.266" y="352.186" width="33" height="30" rx="15" transform="rotate(-29.3963 167.266 352.186)" stroke="#302900"/>
</g>
<path d="M1469.43 -205.011L1496.69 -215.463C1519.56 -224.235 1545.41 -214.958 1557.48 -193.643L1575.51 -161.816C1578.05 -157.338 1579.87 -152.492 1580.91 -147.453L1592.45 -91.7158C1594.51 -81.7521 1593.46 -71.3948 1589.42 -62.0539L1459.74 238.192C1436.27 292.541 1354.48 267.309 1365.7 209.181L1438.56 -168.178C1441.8 -184.964 1453.47 -198.889 1469.43 -205.011Z" stroke="#302900"/>
<path d="M1325.16 827.043L1349 810.209C1369.01 796.08 1396.35 798.713 1413.29 816.403L1438.6 842.817C1442.16 846.534 1445.12 850.782 1447.37 855.41L1472.26 906.596C1476.71 915.746 1478.24 926.045 1476.62 936.092L1424.79 1259.01C1415.4 1317.46 1329.92 1313.13 1326.5 1254.03L1304.29 870.34C1303.3 853.273 1311.19 836.903 1325.16 827.043Z" stroke="#302900"/>
<path d="M1433.16 319.043L1457 302.209C1477.01 288.08 1504.35 290.713 1521.29 308.403L1546.6 334.817C1550.16 338.534 1553.12 342.782 1555.37 347.41L1580.26 398.596C1584.71 407.746 1586.24 418.045 1584.62 428.092L1532.79 751.011C1523.4 809.465 1437.92 805.129 1434.5 746.026L1412.29 362.34C1411.3 345.273 1419.19 328.903 1433.16 319.043Z" stroke="#302900"/>
</g>
<defs>
<radialGradient id="paint0_angular_3_273" cx="0" cy="0" r="1" gradientUnits="userSpaceOnUse" gradientTransform="translate(592.375 310.452) rotate(74.2912) scale(685.138 1066.79)">
<stop stop-color="#141207"/>
<stop offset="0.525487"/>
</radialGradient>
<clipPath id="clip0_3_273">
<rect width="1512" height="982" fill="white"/>
</clipPath>
<clipPath id="clip1_3_273">
<rect width="1512" height="970" fill="white"/>
</clipPath>
</defs>
</svg>
